<svg xmlns="http://www.w3.org/2000/svg" viewBox="0 0 48 48" xmlns:xlink="http://www.w3.org/1999/xlink" xml:space="preserve" width="100%" height="100%"><path xmlns="http://www.w3.org/2000/svg" d="M20 26H8a2 2 0 0 0-2 2v12a2 2 0 0 0 2 2h12a2 2 0 0 0 2-2V28a2 2 0 0 0-2-2m-2 12h-8v-8h8zM40 6H28a2 2 0 0 0-2 2v12a2 2 0 0 0 2 2h12a2 2 0 0 0 2-2V8a2 2 0 0 0-2-2m-2 12h-8v-8h8zm2 14h-4v-4a2 2 0 0 0-4 0v4h-4a2 2 0 0 0 0 4h4v4a2 2 0 0 0 4 0v-4h4a2 2 0 0 0 0-4M20 6H8a2 2 0 0 0-2 2v12a2 2 0 0 0 2 2h12a2 2 0 0 0 2-2V8a2 2 0 0 0-2-2m-2 12h-8v-8h8z"></path></svg>