<svg xmlns="http://www.w3.org/2000/svg" viewBox="0 0 48 48" xmlns:xlink="http://www.w3.org/1999/xlink" xml:space="preserve" width="100%" height="100%"><path xmlns="http://www.w3.org/2000/svg" d="M34.06 27.44a1.5 1.5 0 0 0-2.12 0l-1.19 1.189-2.858-2.858A15.68 15.68 0 0 0 31.5 15.75C31.5 7.065 24.434 0 15.75 0S0 7.065 0 15.75 7.066 31.5 15.75 31.5a15.68 15.68 0 0 0 10.02-3.608l2.859 2.858-1.19 1.19a1.5 1.5 0 0 0 0 2.12l13.5 13.5a1.494 1.494 0 0 0 2.121 0l4.5-4.5a1.5 1.5 0 0 0 0-2.12zM3 15.75C3 8.72 8.72 3 15.75 3S28.5 8.72 28.5 15.75 22.78 28.5 15.75 28.5 3 22.78 3 15.75m39 28.628L30.621 33 33 30.622 44.379 42z"></path></svg>